# xmcd
#
# Track frame offsets:
#	150
#	8723
#	28413
#	46943
#	69316
#	112724
#	134500
#	162426
#	176038
#	188475
#	240435
#	249487
#	274984
#	292034
#
# Disc length: 4243 seconds
# Revision: 0
# Processed by: cddbd v1.5.2PL0 Copyright (c) Steve Scherf et al.
# Submitted via: dBpowerAMP V12.0
#
DISCID=c110910e
DTITLE=Eric Johnson - Live In Europe
DYEAR=2014
DGENRE=Blues
TTITLE0=Intro
TTITLE1=Zenland
TTITLE2=Austin
TTITLE3=Forty Mile Town
TTITLE4=Mr. P.C.
TTITLE5=Manhattan
TTITLE6=Zap
TTITLE7=Song For Life
TTITLE8=Fatdaddy
TTITLE9=Last House On The Block
TTITLE10=Interlude
TTITLE11=Cliffs Of Dover
TTITLE12=Evinrude Fever
TTITLE13=Sun Reprise
EXTD=
EXTT0=
EXTT1=
EXTT2=
EXTT3=
EXTT4=
EXTT5=
EXTT6=
EXTT7=
EXTT8=
EXTT9=
EXTT10=
EXTT11=
EXTT12=
EXTT13=
PLAYORDER=
